<?xml version="1.0" encoding="UTF-8"?>
<!DOCTYPE svg PUBLIC "-//W3C//DTD SVG 1.1//EN" "http://www.w3.org/Graphics/SVG/1.1/DTD/svg11.dtd">
<!-- Creator: CorelDRAW -->
<svg xmlns="http://www.w3.org/2000/svg" xml:space="preserve" width="400mm" height="106.021mm" style="shape-rendering:geometricPrecision; text-rendering:geometricPrecision; image-rendering:optimizeQuality; fill-rule:evenodd; clip-rule:evenodd"
viewBox="0 0 400 106.021"
 xmlns:xlink="http://www.w3.org/1999/xlink">
 <defs>
  <style type="text/css">
   <![CDATA[
    .fil0 {fill:#0093DD}
    .fil2 {fill:#68B92E}
    .fil1 {fill:#68B92E;fill-rule:nonzero}
   ]]>
  </style>
 </defs>
 <g id="图层_x0020_1">
  <metadata id="CorelCorpID_0Corel-Layer"/>
  <g id="_52135800">
   <path id="_52137048" class="fil0" d="M30.5914 53.0105l31.3934 31.3982 19.8137 -19.8134c3.4998,-3.4998 9.176,-3.4996 12.675,0 3.4992,3.4994 3.4988,9.1752 0,12.674l-26.151 26.151c-3.483,3.4829 -9.2237,3.4511 -12.6743,0l-37.7228 -37.7276 -0.0012 22.4288c0,4.9234 -4.0262,8.9634 -8.963,8.9634 -4.9368,0 -8.9612,-4.0138 -8.9612,-8.9622l0 -70.2228c0,-4.9482 4.0122,-8.962 8.9612,-8.962 4.949,0 8.963,4.015 8.963,8.962l0 22.4288 37.724 -37.7282c3.4512,-3.4513 9.1907,-3.4833 12.6743,0l26.151 26.151c3.4998,3.4994 3.4992,9.175 0,12.674 -3.499,3.4992 -9.1754,3.4994 -12.675,0l-19.8137 -19.8134 -31.3934 31.3984zm31.4108 -8.9714c4.9537,0 8.9711,4.0174 8.9711,8.9712 0,4.954 -4.0174,8.9714 -8.9711,8.9714 -4.954,0 -8.9714,-4.0174 -8.9714,-8.9714 0,-4.9538 4.0174,-8.9712 8.9714,-8.9712z"/>
   <path id="_52136472" class="fil1" d="M128.445 21.6122c-0.6419,0 -1.1687,0.5268 -1.1687,1.1687 0,20.1852 0,40.2703 0,60.4555 0,0.6428 0.5259,1.1687 1.1687,1.1687l8.3629 -0.0009c0.6419,0 1.1688,-0.525 1.1688,-1.1688l0 -16.3813 8.3909 -9.832 18.7049 26.4211c0.5745,0.8103 0.9517,0.9619 2.0091,0.9619l10.4281 0c0.8272,0 1.31,-0.363 0.3827,-1.674l-24.2427 -34.2431 21.5065 -25.2018c1.0453,-1.2249 0.4492,-1.674 -0.3827,-1.674l-10.3785 0c-1.063,0 -1.3625,0.204 -2.0091,0.9619l-22.6696 26.5643c-0.5793,0 -1.1604,0 -1.7396,0l0 -26.3565c0,-0.6438 -0.5269,-1.1688 -1.1688,-1.1688l-8.3629 -0.0009z"/>
   <path id="_52137024" class="fil1" d="M210.87 77.2326c0,2.0025 0.0009,4.0031 0.0009,6.0047 0,0.641 0.5278,1.1688 1.1688,1.1688l7.2858 -0.001c0.64,0 1.1687,-0.5249 1.1687,-1.1687l0 -40.6895c0,-0.6438 -0.5287,-1.1687 -1.1687,-1.1687l-8.0045 -0.001c-0.6419,0 -1.1688,0.5278 -1.1688,1.1688l0 18.7113c0,6.3005 -3.3743,13.7023 -10.7434,13.7023 -6.2415,0 -8.9505,-4.4673 -8.9505,-10.0257l0 -22.387c0,-0.6438 -0.5297,-1.1687 -1.1688,-1.1687l-8.0045 -0.001c-0.6419,0 -1.1687,0.5278 -1.1687,1.1688l0 23.8224c0,5.4293 0.9479,9.4802 3.9264,13.1923 5.0512,6.2958 16.649,6.3379 22.5069,0.8338 0.9966,-0.9367 1.791,-2.0053 2.5125,-3.1619 0.6026,0 1.2062,0 1.8079,0z"/>
   <path id="_52136688" class="fil1" d="M284.53 74.0435l-5.8898 -5.5829c-0.7347,-0.6965 -1.0945,-0.4752 -1.7907,0.2611 -4.2518,4.5102 -9.716,7.0454 -16.0605,7.0454 -5.8259,0 -11.5973,-2.0929 -15.7777,-6.2104 -4.4275,-4.3611 -6.5327,-10.4039 -6.5327,-16.5479 0,-6.1123 2.1208,-12.2025 6.5327,-16.5482 4.1804,-4.1174 9.9518,-6.2104 15.7777,-6.2104 6.3445,0 11.8087,2.5352 16.0605,7.0454 0.6962,0.7364 1.056,0.9576 1.7907,0.2611l5.8898 -5.5829c0.4243,-0.4021 0.9209,-0.7631 0.0117,-1.7442 -6.2659,-6.757 -14.5651,-10.0519 -23.8425,-10.0519 -8.7372,0 -17.2369,3.2705 -23.4437,9.4772 -6.188,6.1881 -9.4773,14.6747 -9.4773,23.3536 0,8.6681 3.3202,17.1968 9.4773,23.3539 6.2068,6.2068 14.7065,9.4772 23.4437,9.4772 9.2774,0 17.5766,-3.2949 23.8425,-10.0519 0.9092,-0.981 0.4126,-1.3421 -0.0117,-1.7442z"/>
   <path id="_52136760" class="fil1" d="M342.148 84.4042c-0.64,0 -1.1687,-0.5268 -1.1687,-1.1678l0 -40.6886c0,-0.6419 0.5268,-1.1687 1.1687,-1.1687l8.0045 0.0009c0.641,0 1.1688,0.5259 1.1688,1.1688l0 40.6866c0,0.6429 -0.5297,1.1688 -1.1688,1.1688l-8.0045 0z"/>
   <path id="_52135944" class="fil1" d="M369.246 48.5517c0,-2.0026 -0.0009,-4.0032 -0.0009,-6.0048 0,-0.641 -0.5278,-1.1687 -1.1688,-1.1687l-7.2858 0.0009c-0.6401,0 -1.1688,0.5249 -1.1688,1.1687l0 40.6895c0,0.6438 0.5287,1.1688 1.1688,1.1688l8.0045 0.0009c0.6419,0 1.1687,-0.5278 1.1687,-1.1687l0 -18.7114c0,-6.3005 3.3744,-13.7023 10.7435,-13.7023 6.2415,0 8.9505,4.4673 8.9505,10.0257l0 22.387c0,0.6438 0.5296,1.1688 1.1687,1.1688l8.0045 0.0009c0.642,0 1.1688,-0.5278 1.1688,-1.1687l0 -23.8225c0,-5.4293 -0.9479,-9.4802 -3.9265,-13.1923 -5.0512,-6.2958 -16.649,-6.3379 -22.5068,-0.8338 -0.9966,0.9367 -1.7911,2.0054 -2.5125,3.162 -0.6027,0 -1.2062,0 -1.8079,0z"/>
   <circle id="_52135896" class="fil2" cx="346.15" cy="27.0077" r="6.82999"/>
   <path id="_52135824" class="fil1" d="M311.2 39.008c-3.1152,0 -6.2172,0.509 -9.104,1.6927 -5.4367,2.2299 -9.5999,6.4109 -11.8101,11.8551 -1.1791,2.9064 -1.6956,6.0215 -1.6956,9.1507 0,3.1291 0.5165,6.2443 1.6956,9.1516 2.2102,5.4443 6.3734,9.6252 11.8101,11.8551 2.8859,1.1837 5.9926,1.6928 9.104,1.6928 3.1114,0 6.2181,-0.5091 9.103,-1.6928 5.4358,-2.228 9.6018,-6.4118 11.8102,-11.8551 1.1285,-2.7819 1.6965,-6.3294 1.6965,-9.1516 0,-2.8222 -0.5081,-6.2199 -1.6965,-9.1507 -2.2066,-5.4433 -6.3763,-9.627 -11.8102,-11.8551 -2.8924,-1.1865 -5.9879,-1.6927 -9.103,-1.6927zm0 35.9525c-2.3806,0 -4.7406,-0.6812 -6.7328,-2.0147 -2.0774,-1.3896 -3.6139,-3.3865 -4.5412,-5.6894 -0.7084,-1.7582 -0.9938,-3.6597 -0.9938,-5.5499 0,-1.8902 0.2854,-3.7898 0.9938,-5.5499 1.2305,-3.0609 3.5475,-5.5331 6.6149,-6.7973 1.4747,-0.6074 3.072,-0.9068 4.6591,-0.9068 1.587,0 3.1432,0.3144 4.6086,0.9039 3.0982,1.2483 5.4264,3.7178 6.6653,6.8002 0.7084,1.7601 0.9938,3.6597 0.9938,5.5499 0,1.8902 -0.2854,3.7926 -0.9938,5.5499 -0.9348,2.316 -2.4713,4.312 -4.5552,5.6922 -1.9791,1.311 -4.3382,2.0119 -6.7187,2.0119z"/>
  </g>
 </g>
</svg>
