<?xml version="1.0" encoding="UTF-8"?>
<!DOCTYPE svg PUBLIC "-//W3C//DTD SVG 1.1//EN" "http://www.w3.org/Graphics/SVG/1.1/DTD/svg11.dtd">
<!-- Creator: CorelDRAW -->
<svg xmlns="http://www.w3.org/2000/svg" xml:space="preserve" width="58.2003mm" height="7.259mm" style="shape-rendering:geometricPrecision; text-rendering:geometricPrecision; image-rendering:optimizeQuality; fill-rule:evenodd; clip-rule:evenodd"
viewBox="0 0 56.6474 7.06531"
 xmlns:xlink="http://www.w3.org/1999/xlink">
 <defs>
  <style type="text/css">
   <![CDATA[
    .fil2 {fill:#0093DD}
    .fil4 {fill:#68B92E}
    .fil3 {fill:#68B92E;fill-rule:nonzero}
    .fil0 {fill:white;fill-opacity:0.160784}
    .fil1 {fill:url(#id0)}
   ]]>
  </style>
  <linearGradient id="id0" gradientUnits="userSpaceOnUse" x1="33.7306" y1="6.2924" x2="56.6883" y2="2.49588">
   <stop offset="0" style="stop-color:#6AC02C"/>
   <stop offset="0.501961" style="stop-color:#01AAFF"/>
   <stop offset="1" style="stop-color:#C14FD4"/>
  </linearGradient>
 </defs>
 <g id="图层_x0020_1">
  <metadata id="CorelCorpID_0Corel-Layer"/>
  <g id="_149490752">
   <polygon id="_149515280" class="fil0" points="30.0853,7.00925 30.3429,7.00925 30.3429,0.0560631 30.0853,0.0560631 "/>
   <path id="_149515400" class="fil1" d="M33.7716 2.3128l1.17742 0c0.514496,0 0.90392,0.153006 1.1635,0.463591 0.236321,0.278077 0.356916,0.676748 0.356916,1.19124 0,0.505346 -0.134415,0.90392 -0.398671,1.19601 -0.278174,0.305914 -0.672173,0.458822 -1.182,0.458822l-1.11717 0 0 -3.30967zm0.282749 0.250337l0 2.80909 0.79267 0c0.440329,0 0.778751,-0.125169 1.0105,-0.375506 0.2225,-0.240993 0.333751,-0.584088 0.333751,-1.02909 0,-0.463494 -0.0973318,-0.806491 -0.291995,-1.03366 -0.213254,-0.250337 -0.547004,-0.370834 -0.992005,-0.370834l-0.852918 0zm3.87526 0.598006c0.38008,0 0.662829,0.125169 0.852918,0.384655 0.166827,0.227172 0.259584,0.547004 0.273405,0.959594l-1.94683 0c0.0139184,0.291995 0.0926598,0.523742 0.236419,0.690666 0.148334,0.166924 0.342997,0.250337 0.593334,0.250337 0.217828,0 0.393999,-0.0602484 0.528414,-0.171499 0.11125,-0.0974291 0.194664,-0.236419 0.254912,-0.421836l0.282846 0c-0.0556738,0.231747 -0.162252,0.421836 -0.319929,0.570169 -0.194664,0.176073 -0.440329,0.264158 -0.746243,0.264158 -0.338423,0 -0.607253,-0.115825 -0.806588,-0.342997 -0.208582,-0.231747 -0.310586,-0.542333 -0.310586,-0.922413 0,-0.352341 0.0973318,-0.644336 0.296667,-0.885427 0.204007,-0.25024 0.472838,-0.375409 0.81126,-0.375409zm0.00457459 0.240993c-0.236419,0 -0.42641,0.0788387 -0.570169,0.245665 -0.143662,0.162252 -0.227075,0.370834 -0.25024,0.630418l1.65016 0c-0.0463299,-0.584088 -0.324504,-0.876083 -0.829753,-0.876083zm1.29792 -0.17617l0.305914 0 0.755586 2.04426 0.751012 -2.04426 0.310488 0 -0.917741 2.3965 -0.287421 0 -0.917838 -2.3965zm3.4071 -0.0648229c0.38008,0 0.662829,0.125169 0.852918,0.384655 0.166827,0.227172 0.259584,0.547004 0.273405,0.959594l-1.94683 0c0.0139184,0.291995 0.0926598,0.523742 0.236419,0.690666 0.148334,0.166924 0.342997,0.250337 0.593334,0.250337 0.217828,0 0.393999,-0.0602484 0.528414,-0.171499 0.11125,-0.0974291 0.194664,-0.236419 0.254912,-0.421836l0.282846 0c-0.0556738,0.231747 -0.162252,0.421836 -0.319929,0.570169 -0.194664,0.176073 -0.440329,0.264158 -0.746243,0.264158 -0.338423,0 -0.607253,-0.115825 -0.806588,-0.342997 -0.208582,-0.231747 -0.310586,-0.542333 -0.310586,-0.922413 0,-0.352341 0.0973318,-0.644336 0.296667,-0.885427 0.204007,-0.25024 0.472838,-0.375409 0.81126,-0.375409zm0.00457459 0.240993c-0.236419,0 -0.42641,0.0788387 -0.570169,0.245665 -0.143662,0.162252 -0.227075,0.370834 -0.25024,0.630418l1.65016 0c-0.0463299,-0.584088 -0.324504,-0.876083 -0.829753,-0.876083zm1.65483 -1.15416l0.278174 0 0 3.37449 -0.278174 0 0 -3.37449zm1.99793 0.913167c0.352244,0 0.634992,0.125169 0.848246,0.38008 0.194664,0.236419 0.291995,0.533086 0.291995,0.88533 0,0.352341 -0.0973318,0.644336 -0.291995,0.880755 -0.213254,0.250337 -0.496003,0.38008 -0.848246,0.38008 -0.352341,0 -0.63509,-0.129743 -0.848344,-0.38008 -0.194664,-0.236419 -0.291995,-0.528414 -0.291995,-0.880755 0,-0.352244 0.0973318,-0.648911 0.296667,-0.88533 0.208582,-0.254912 0.491331,-0.38008 0.843672,-0.38008zm0 0.240993c-0.273502,0 -0.486756,0.102004 -0.644336,0.315258 -0.143759,0.185417 -0.213254,0.421738 -0.213254,0.709159 0,0.282749 0.0694949,0.519168 0.213254,0.704585 0.15758,0.208582 0.370834,0.315258 0.644336,0.315258 0.273502,0 0.491331,-0.106676 0.648911,-0.315258 0.139087,-0.189992 0.213254,-0.42641 0.213254,-0.704585 0,-0.287421 -0.0741668,-0.523742 -0.213254,-0.709159 -0.15758,-0.213254 -0.375409,-0.315258 -0.648911,-0.315258zm2.7395 -0.240993c0.338423,0 0.607253,0.125169 0.806588,0.384655 0.17617,0.231844 0.264158,0.523839 0.264158,0.885427 0,0.352244 -0.0879879,0.644336 -0.259584,0.876083 -0.194664,0.250337 -0.458822,0.38008 -0.801916,0.38008 -0.384752,0 -0.662829,-0.189992 -0.839,-0.565497l0 1.41842 -0.278077 0 0 -3.31434 0.264158 0 0 0.472838c0.17617,-0.361587 0.454345,-0.537661 0.843672,-0.537661zm-0.0324115 0.236321c-0.259584,0 -0.463591,0.102004 -0.607253,0.306011 -0.134415,0.180745 -0.199335,0.417164 -0.199335,0.709159l0 0.0510018c0,0.287421 0.0694949,0.523839 0.213254,0.709256 0.143662,0.185417 0.338325,0.278077 0.583991,0.278077 0.273502,0 0.482084,-0.101906 0.630418,-0.296667 0.129841,-0.180745 0.194761,-0.421836 0.194761,-0.723078 0,-0.301339 -0.0649203,-0.542333 -0.190089,-0.723175 -0.148334,-0.208582 -0.356916,-0.310586 -0.625746,-0.310586zm2.56333 -0.236321c0.380178,0 0.662927,0.125169 0.852918,0.384655 0.166924,0.227172 0.259584,0.547004 0.273502,0.959594l-1.94683 0c0.0139184,0.291995 0.0926598,0.523742 0.236419,0.690666 0.148334,0.166924 0.342997,0.250337 0.593334,0.250337 0.217828,0 0.393999,-0.0602484 0.528414,-0.171499 0.11125,-0.0974291 0.194664,-0.236419 0.254912,-0.421836l0.282749 0c-0.0555764,0.231747 -0.162252,0.421836 -0.319832,0.570169 -0.194664,0.176073 -0.440329,0.264158 -0.746243,0.264158 -0.338423,0 -0.607253,-0.115825 -0.806588,-0.342997 -0.208582,-0.231747 -0.310586,-0.542333 -0.310586,-0.922413 0,-0.352341 0.0973318,-0.644336 0.296667,-0.885427 0.20391,-0.25024 0.472838,-0.375409 0.811163,-0.375409zm0.00467192 0.240993c-0.236419,0 -0.426508,0.0788387 -0.570169,0.245665 -0.143662,0.162252 -0.227172,0.370834 -0.250337,0.630418l1.65026 0c-0.0463299,-0.584088 -0.324504,-0.876083 -0.829753,-0.876083zm2.57267 -0.240993c0.139087,0 0.254912,0.0138211 0.347669,0.0510018l0 0.282749c-0.125169,-0.0370834 -0.245665,-0.0510018 -0.366259,-0.0510018 -0.213157,0 -0.389327,0.0926598 -0.519168,0.287421 -0.129743,0.176073 -0.189992,0.384655 -0.189992,0.625746l0 1.26541 -0.278174 0 0 -2.3965 0.278174 0 0 0.458919c0.0648229,-0.148334 0.152908,-0.26883 0.264158,-0.356916 0.129841,-0.11125 0.287421,-0.166827 0.463591,-0.166827zm1.47866 0c0.565497,0 0.885427,0.245665 0.954922,0.736996l-0.273502 0c-0.0324115,-0.166827 -0.0973318,-0.287421 -0.199335,-0.366162 -0.11125,-0.0880852 -0.273502,-0.129841 -0.486659,-0.129841 -0.17617,0 -0.319929,0.0324115 -0.43118,0.106676 -0.11125,0.0741668 -0.166827,0.166827 -0.166827,0.287323 0,0.120497 0.0694949,0.217926 0.213254,0.292093 0.0926598,0.0463299 0.259584,0.101906 0.505249,0.166827 0.291995,0.0741668 0.500577,0.148334 0.621171,0.2225 0.189992,0.115922 0.287323,0.278174 0.287323,0.482084 0,0.482084 -0.324407,0.72775 -0.973415,0.72775 -0.616499,0 -0.95025,-0.273502 -1.00592,-0.820409l0.273502 0c0.0278369,0.208582 0.102004,0.36149 0.2225,0.454247 0.11125,0.0834133 0.278174,0.125169 0.500675,0.125169 0.463494,0 0.695338,-0.15758 0.695338,-0.472838 0,-0.143662 -0.0788387,-0.254912 -0.236419,-0.333751 -0.0835106,-0.0417553 -0.259584,-0.0973318 -0.533086,-0.166827 -0.278174,-0.0741668 -0.472838,-0.143759 -0.584088,-0.213254 -0.185417,-0.11125 -0.273502,-0.264256 -0.273502,-0.458919 0,-0.194664 0.0834133,-0.347669 0.259584,-0.468166 0.166924,-0.115922 0.38008,-0.171499 0.630418,-0.171499z"/>
   <g>
    <path id="_149489720" class="fil2" d="M2.03871 3.53266l2.09205 2.09244 1.3204 -1.3204c0.233304,-0.233207 0.611535,-0.233207 0.844742,0 0.233207,0.233207 0.23311,0.611438 0,0.844548l-1.74273 1.74282c-0.232136,0.232039 -0.614747,0.229995 -0.844645,0l-2.51388 -2.51427 -9.73318e-005 1.49472c0,0.328105 -0.268344,0.597325 -0.597325,0.597325 -0.328981,0 -0.597228,-0.267468 -0.597228,-0.597228l0 -4.67981c0,-0.32976 0.267468,-0.597228 0.597228,-0.597228 0.329857,0 0.597325,0.267565 0.597325,0.597228l0 1.49472 2.51398 -2.51427c0.229995,-0.229995 0.612509,-0.232136 0.844645,0l1.74273 1.74273c0.233207,0.233207 0.233207,0.611438 0,0.844645 -0.233207,0.233207 -0.611438,0.233207 -0.844742,0l-1.3204 -1.3204 -2.09205 2.09244zm2.09322 -0.597909c0.330149,0 0.597909,0.26776 0.597909,0.597909 0,0.330149 -0.26776,0.597812 -0.597909,0.597812 -0.330149,0 -0.597812,-0.267662 -0.597812,-0.597812 0,-0.330149 0.267662,-0.597909 0.597812,-0.597909z"/>
    <path id="_149489288" class="fil3" d="M8.55984 1.44022c-0.042826,0 -0.0778654,0.0351368 -0.0778654,0.0778654 0,1.34522 0,2.68373 0,4.02885 0,0.042826 0.0350394,0.0778654 0.0778654,0.0778654l0.557322 0c0.0427286,0 0.0778654,-0.0350394 0.0778654,-0.0779627l0 -1.09167 0.559171 -0.65514 1.24653 1.76073c0.0382514,0.0539218 0.0634603,0.0640443 0.133928,0.0640443l0.694851 0c0.0551871,0 0.0873066,-0.0241383 0.0255983,-0.111542l-1.61561 -2.28204 1.43321 -1.67946c0.0696895,-0.081564 0.0299782,-0.111542 -0.0255009,-0.111542l-0.691639 0c-0.0708575,0 -0.0908105,0.0136264 -0.133831,0.0641416l-1.51078 1.77027c-0.0386407,0 -0.0772814,0 -0.115922,0l0 -1.75645c0,-0.0429233 -0.0351368,-0.0778654 -0.0778654,-0.0778654l-0.557322 -9.73318e-005z"/>
    <path id="_149489120" class="fil3" d="M14.0528 5.14681c0,0.133442 0,0.266786 0,0.400228 0,0.0427286 0.0352341,0.0778654 0.0779627,0.0778654l0.485491 -9.73318e-005c0.0426313,0 0.0778654,-0.0349421 0.0778654,-0.0778654l0 -2.71157c0,-0.0429233 -0.0352341,-0.0778654 -0.0778654,-0.0778654l-0.533378 -9.73318e-005c-0.042826,0 -0.0779627,0.0351368 -0.0779627,0.0778654l0 1.24692c0,0.419889 -0.224836,0.913167 -0.715972,0.913167 -0.415899,0 -0.596449,-0.297738 -0.596449,-0.668085l0 -1.4919c0,-0.0429233 -0.0352341,-0.0778654 -0.0778654,-0.0778654l-0.533475 -9.73318e-005c-0.0427286,0 -0.0778654,0.0351368 -0.0778654,0.0778654l0 1.58758c0,0.361782 0.0631683,0.63178 0.261725,0.8791 0.336573,0.419597 1.10948,0.42242 1.49988,0.0555764 0.0663803,-0.0623897 0.119329,-0.133636 0.167411,-0.210723 0.040198,0 0.080396,0 0.120497,0z"/>
    <path id="_149489072" class="fil3" d="M18.9615 4.93433l-0.392539 -0.372099c-0.0489579,-0.0464272 -0.0729015,-0.0316328 -0.119329,0.0174224 -0.283333,0.30056 -0.647451,0.469528 -1.07026,0.469528 -0.388256,0 -0.772814,-0.139476 -1.05147,-0.413855 -0.295013,-0.290633 -0.435365,-0.693391 -0.435365,-1.10277 0,-0.407333 0.141423,-0.813207 0.435365,-1.10277 0.278661,-0.274476 0.663219,-0.413952 1.05147,-0.413952 0.422809,0 0.786927,0.168968 1.07026,0.469528 0.0464272,0.0490552 0.0703709,0.0638496 0.119329,0.0174224l0.392539 -0.372002c0.0283235,-0.0268636 0.0614163,-0.0509045 0.000778654,-0.116311 -0.417553,-0.450257 -0.970592,-0.669837 -1.58884,-0.669837 -0.582336,0 -1.14871,0.217926 -1.56237,0.631586 -0.412395,0.412395 -0.631586,0.977892 -0.631586,1.55633 0,0.577567 0.221235,1.14598 0.631586,1.55633 0.41366,0.413563 0.980033,0.631488 1.56237,0.631488 0.618251,0 1.17129,-0.21958 1.58884,-0.669837 0.0606377,-0.0654069 0.0275449,-0.0894479 -0.000778654,-0.116214z"/>
    <path id="_149488952" class="fil3" d="M22.8012 5.6248c-0.0426313,0 -0.0778654,-0.0351368 -0.0778654,-0.0778654l0 -2.71157c0,-0.0427286 0.0351368,-0.0778654 0.0778654,-0.0778654l0.533475 9.73318e-005c0.0427286,0 0.0778654,0.0350394 0.0778654,0.0778654l0 2.71137c0,0.0429233 -0.0353314,0.0779627 -0.0778654,0.0779627l-0.533475 0z"/>
    <path id="_149488808" class="fil3" d="M24.6071 3.2355c0,-0.133442 -9.73318e-005,-0.266786 -9.73318e-005,-0.400131 0,-0.0427286 -0.0351368,-0.0778654 -0.0778654,-0.0778654l-0.485491 0c-0.0427286,0 -0.0779627,0.0350394 -0.0779627,0.0778654l0 2.71166c0,0.042826 0.0352341,0.0778654 0.0779627,0.0778654l0.533378 9.73318e-005c0.042826,0 0.0778654,-0.0352341 0.0778654,-0.0779627l0 -1.24692c0,-0.419889 0.224934,-0.913167 0.715972,-0.913167 0.415996,0 0.596449,0.297738 0.596449,0.668182l0 1.4919c0,0.042826 0.0353314,0.0778654 0.0779627,0.0778654l0.533378 9.73318e-005c0.042826,0 0.0778654,-0.0352341 0.0778654,-0.0779627l0 -1.58748c0,-0.361879 -0.0631683,-0.63178 -0.261628,-0.879198 -0.336573,-0.419597 -1.10948,-0.422322 -1.49988,-0.0555764 -0.0663803,0.0623897 -0.119329,0.133636 -0.167411,0.210723 -0.040198,0 -0.080396,0 -0.120497,0z"/>
    <circle id="_149489096" class="fil4" cx="23.068" cy="1.79979" r="0.45516"/>
    <path id="_149488760" class="fil3" d="M20.7389 2.59954c-0.207609,0 -0.414341,0.0338714 -0.606669,0.112808 -0.362366,0.148528 -0.639762,0.427189 -0.787122,0.790042 -0.0785467,0.19369 -0.113002,0.401201 -0.113002,0.609783 0,0.208485 0.0344554,0.416093 0.113002,0.609881 0.14736,0.362755 0.424756,0.641416 0.787122,0.790042 0.192328,0.0788387 0.399352,0.112808 0.606669,0.112808 0.207317,0 0.414341,-0.0339688 0.606669,-0.112808 0.362171,-0.148528 0.639859,-0.427286 0.787025,-0.790042 0.0751401,-0.185417 0.113002,-0.421836 0.113002,-0.609881 0,-0.188045 -0.0338714,-0.414536 -0.113002,-0.609783 -0.147068,-0.362755 -0.42495,-0.641611 -0.787025,-0.790042 -0.192814,-0.0791307 -0.39906,-0.112808 -0.606669,-0.112808zm0 2.39592c-0.158651,0 -0.315939,-0.0454539 -0.448699,-0.134318 -0.138406,-0.0925625 -0.240799,-0.225615 -0.302604,-0.379107 -0.0472059,-0.117187 -0.0662829,-0.243913 -0.0662829,-0.369861 0,-0.125947 0.019077,-0.252576 0.0662829,-0.369861 0.0819533,-0.204007 0.236419,-0.368693 0.440816,-0.452982 0.0983051,-0.04049 0.204689,-0.060443 0.310488,-0.060443 0.1058,0 0.209458,0.0209263 0.307082,0.0602484 0.206538,0.0832186 0.361685,0.247807 0.444222,0.453177 0.0472059,0.117285 0.0661856,0.243913 0.0661856,0.369861 0,0.125947 -0.0189797,0.252771 -0.0661856,0.369861 -0.0622923,0.154368 -0.164685,0.287323 -0.303578,0.379302 -0.131885,0.0874039 -0.289075,0.134123 -0.447726,0.134123z"/>
   </g>
  </g>
 </g>
</svg>
