<?xml version="1.0" encoding="UTF-8"?>
<svg width="282px" height="56px" viewBox="0 0 282 56" version="1.1" xmlns="http://www.w3.org/2000/svg" xmlns:xlink="http://www.w3.org/1999/xlink">
    <!-- Generator: Sketch 61 (89581) - https://sketch.com -->
    <title>kucoin-api-logo</title>
    <desc>Created with Sketch.</desc>
    <defs>
        <linearGradient x1="1.65348533%" y1="50%" x2="96.7282334%" y2="50%" id="linearGradient-1">
            <stop stop-color="#4E7EF2" offset="0%"></stop>
            <stop stop-color="#3FE3DD" offset="100%"></stop>
        </linearGradient>
    </defs>
    <g id="kucoin-api-logo" stroke="none" stroke-width="1" fill="none" fill-rule="evenodd">
        <rect id="矩形" x="0" y="0" width="150" height="56"></rect>
        <g id="KUCOIN-logo-3.0" transform="translate(14.000000, 14.000000)" fill="#23AF91">
            <path d="M95.3348624,13.987156 C95.3348624,13.2730275 95.3348624,12.6012844 95.3117431,11.9809174 C95.296002,11.3956695 95.2380534,10.81232 95.1383486,10.2354128 C95.0450928,9.70861925 94.8804577,9.19699747 94.6489908,8.7146789 C94.4046408,8.21738854 94.0780957,7.76491515 93.6831193,7.37633028 C93.1229408,6.80236407 92.4563429,6.34298733 91.7205505,6.02385321 C90.9245743,5.70142254 90.0721094,5.54158536 89.2133945,5.55376147 C88.3514363,5.54262305 87.4958146,5.70239731 86.6959633,6.02385321 C85.9559568,6.33862878 85.2851594,6.79601046 84.7218349,7.36990826 C84.3276093,7.75826129 84.0022989,8.2108293 83.7598165,8.70825688 C83.5302853,9.19068108 83.3682154,9.70238981 83.2781651,10.2289908 C83.1807191,10.8060684 83.1249176,11.3894092 83.1111927,11.9744954 C83.0957798,12.5948624 83.0880734,13.2666055 83.0919266,13.9807339 C83.0957798,14.6948624 83.0919266,15.3614679 83.1111927,15.9856881 C83.1249176,16.5707743 83.1807191,17.154115 83.2781651,17.7311927 C83.3682154,18.2577937 83.5302853,18.7695024 83.7598165,19.2519266 C84.0032543,19.7487829 84.3284552,20.2011987 84.7218349,20.5902752 C85.2842337,21.1646343 85.955309,21.6213323 86.6959633,21.9337615 C87.4952784,22.2573175 88.3511539,22.4180125 89.2133945,22.406422 C90.0723954,22.4190774 90.9251221,22.2583174 91.7205505,21.9337615 C92.45646,21.6188704 93.1232917,21.1623875 93.6831193,20.5902752 C94.0772266,20.2009451 94.4036597,19.7486269 94.6489908,19.2519266 C94.8804577,18.769608 95.0450928,18.2579863 95.1383486,17.7311927 C95.2369468,17.1559168 95.294036,16.5742936 95.3091743,15.9908257 C95.3284404,15.3666055 95.3374312,14.6987156 95.3322936,13.9858716 L95.3348624,13.987156 Z M92.0981651,13.987156 C92.0981651,14.7783486 92.0866055,15.4372477 92.059633,15.9612844 C92.0444742,16.3917348 92.0015717,16.8207597 91.9311927,17.2456881 C91.8830515,17.5287939 91.7966328,17.8040377 91.6743119,18.0638532 C91.5750252,18.2732626 91.4451662,18.4667526 91.2889908,18.6379817 C91.0478944,18.9139831 90.7487716,19.1332813 90.4130275,19.2801835 C90.0352194,19.4418508 89.6281852,19.5240446 89.2172477,19.5217022 C88.8042901,19.523472 88.395273,19.441319 88.0150459,19.2801835 C87.671112,19.136019 87.3638812,18.9165685 87.1159633,18.6379817 C86.958809,18.4675227 86.8288452,18.2738767 86.7306422,18.0638532 C86.6117395,17.8037715 86.5296063,17.5284093 86.4866055,17.2456881 C86.4180274,16.8205227 86.3751362,16.3916105 86.3581651,15.9612844 C86.3350459,15.4372477 86.3234862,14.7792049 86.3234862,13.987156 C86.3234862,13.1959633 86.3350459,12.5357798 86.3581651,12.0117431 C86.3752013,11.5814215 86.4180921,11.1525133 86.4866055,10.7273394 C86.5296063,10.4446183 86.6117395,10.169256 86.7306422,9.90917431 C86.8291456,9.69932063 86.95908,9.50571836 87.1159633,9.33504587 C87.3642308,9.05684842 87.6713669,8.83746544 88.0150459,8.69284404 C88.3947064,8.52988132 88.8041072,8.44765125 89.2172477,8.45137615 C89.628365,8.44710719 90.0357815,8.52937818 90.4130275,8.69284404 C90.7485178,8.84018647 91.0475508,9.05941886 91.2889908,9.33504587 C91.444884,9.50649617 91.5747136,9.69994227 91.6743119,9.90917431 C91.7966328,10.1689898 91.8830515,10.4442336 91.9311927,10.7273394 C92.0014906,11.1522786 92.0443926,11.5812982 92.059633,12.0117431 C92.0878899,12.5344954 92.0981651,13.1946789 92.0981651,13.987156 Z" id="形状" fill-rule="nonzero"></path>
            <path d="M121.125688,5.98275229 C121.124293,5.82656581 120.998021,5.70029369 120.841835,5.69889908 L118.17156,5.69889908 C118.015084,5.69960235 117.88841,5.82627672 117.887706,5.98275229 L117.887706,15.8469725 L111.37578,5.77853211 C111.33211,5.71045872 111.293578,5.69889908 111.197248,5.69889908 L108.720917,5.69889908 C108.565017,5.70097342 108.439139,5.8268518 108.437064,5.98275229 L108.437064,21.9889908 C108.439153,22.1446755 108.565225,22.2701772 108.720917,22.2715596 L111.389908,22.2715596 C111.545674,22.2708564 111.671774,22.144757 111.672477,21.9889908 L111.672477,12.0990826 L118.185688,22.1906422 C118.230642,22.2587156 118.266606,22.2702752 118.36422,22.2702752 L120.839266,22.2702752 C120.995245,22.2695789 121.121716,22.1436802 121.123119,21.9877064 L121.125688,5.98275229 Z" id="路径" fill-rule="nonzero"></path>
            <path d="M103.226239,5.98275229 C103.225535,5.82627672 103.098861,5.69960235 102.942385,5.69889908 L100.274679,5.69889908 C100.118203,5.69960235 99.991529,5.82627672 99.9908257,5.98275229 L99.9908257,21.9877064 C99.991529,22.144182 100.118203,22.2708564 100.274679,22.2715596 L102.942385,22.2715596 C103.098861,22.2708564 103.225535,22.144182 103.226239,21.9877064 L103.226239,5.98275229 Z" id="路径" fill-rule="nonzero"></path>
            <path d="M71.2908257,13.987156 C71.2908257,13.1908257 71.2998165,12.5280734 71.3229358,12.0001835 C71.3386457,11.5697705 71.3815447,11.1407807 71.4513761,10.7157798 C71.6979817,9.29009174 72.7897248,8.44880734 74.1833028,8.44880734 C75.0926606,8.45651376 75.9172477,8.79302752 76.4438532,9.55853211 C76.6823388,9.91591558 76.8562319,10.312392 76.9576147,10.7299083 C76.9654337,10.7738884 77.0056035,10.8045737 77.0500917,10.8005505 L80.1904587,10.8005505 C80.2354128,10.8005505 80.2521101,10.7697248 80.2444037,10.726055 C79.9014679,8.78275229 78.8649541,7.03724771 77.0333945,6.17284404 C76.1332453,5.75606935 75.1507349,5.54753833 74.1588991,5.56275229 C72.3907034,5.56275229 70.9012232,6.16813456 69.6904587,7.37889908 C68.9991921,8.0526024 68.5273632,8.91926353 68.3366972,9.86550459 C68.1517431,10.7971254 68.0584098,12.170581 68.0566741,13.9858716 C68.0549847,15.8011621 68.148318,17.1741896 68.3366972,18.1049541 C68.5257787,19.052413 68.9962363,19.9208124 69.6866055,20.5966972 C70.8965138,21.8066055 72.3859939,22.4115596 74.1550459,22.4115596 C75.1467234,22.4265596 76.1290939,22.2184972 77.0295413,21.8027523 C78.8611009,20.9383486 79.8976147,19.192844 80.2405505,17.2495413 C80.2482569,17.2045872 80.2315596,17.1750459 80.1866055,17.1750459 L77.0449541,17.1750459 C77.0002813,17.1703748 76.9597196,17.2013595 76.9524771,17.2456881 C76.8508519,17.6627229 76.6769712,18.0587364 76.4387156,18.4157798 C75.9121101,19.186422 75.0875229,19.5190826 74.1781651,19.5255046 C72.7845872,19.5255046 71.692844,18.6855046 71.4462385,17.2598165 C71.3764714,16.8348071 71.3335729,16.4058215 71.3177982,15.9754128 C71.2998165,15.4449541 71.2908257,14.7809174 71.2908257,13.987156 Z" id="路径" fill-rule="nonzero"></path>
            <path d="M38.1223853,5.98275229 C38.121682,5.82627672 37.9950077,5.69960235 37.8385321,5.69889908 L35.1708257,5.69889908 C35.0143501,5.69960235 34.8876757,5.82627672 34.8869725,5.98275229 L34.8869725,21.9889908 C34.8883761,22.1449646 35.0148472,22.2708633 35.1708257,22.2717073 L37.8385321,22.2717073 C37.9945106,22.2708633 38.1209816,22.1449646 38.1223853,21.9889908 L38.1223853,17.2906422 L40.2634862,14.7308257 L44.6612844,22.186789 C44.6951393,22.2417657 44.756039,22.2741801 44.8205505,22.2717073 L48.0623853,22.2717073 C48.2113761,22.2717073 48.2383486,22.1790826 48.1638532,22.0519266 L42.4058716,12.2904587 L47.6886239,5.95321101 C47.7952294,5.82477064 47.7502752,5.70275229 47.5833028,5.70275229 L44.039633,5.70275229 C43.9965173,5.70021663 43.9550139,5.71952053 43.9291743,5.75412844 L38.1223853,12.7181651 L38.1223853,5.98275229 Z" id="路径" fill-rule="nonzero"></path>
            <path d="M57.5579817,19.5255046 C56.0565138,19.5255046 54.6950459,18.1357798 54.6950459,16.4763303 L54.6950459,5.98275229 C54.6943426,5.82627672 54.5676682,5.69960235 54.4111927,5.69889908 L51.7434862,5.69889908 C51.5870107,5.69960235 51.4603363,5.82627672 51.459633,5.98275229 L51.459633,16.4352294 C51.459633,20.0893578 54.192844,22.4115596 57.5579817,22.4115596 C60.9231193,22.4115596 63.6563303,20.0893578 63.6563303,16.4352294 L63.6563303,5.98275229 C63.6549357,5.82656581 63.5286636,5.70029369 63.3724771,5.69889908 L60.7034862,5.69889908 C60.5475125,5.70030275 60.4216137,5.82677378 60.4209174,5.98275229 L60.4209174,16.4763303 C60.4209174,18.1344954 59.0581651,19.5255046 57.5579817,19.5255046 Z" id="路径" fill-rule="nonzero"></path>
            <path d="M8.07119266,13.987156 L16.3530275,22.2702752 L21.5805505,17.0427523 C22.5153013,16.2010873 23.9453692,16.2385301 24.8347957,17.1279566 C25.7242222,18.0173831 25.761665,19.447451 24.92,20.3822018 L18.0214679,27.2820183 C17.0948346,28.1933271 15.6086516,28.1933271 14.6820183,27.2820183 L4.72917431,17.3266055 L4.72917431,23.2438532 C4.72917431,24.5497786 3.67051258,25.6084404 2.36458716,25.6084404 C1.05866173,25.6084404 0,24.5497786 0,23.2438532 L0,4.72275229 C0,3.41682687 1.05866173,2.35816514 2.36458716,2.35816514 C3.67051258,2.35816514 4.72917431,3.41682687 4.72917431,4.72275229 L4.72917431,10.64 L14.6807339,0.687155963 C15.6070847,-0.224842783 17.0938328,-0.224842783 18.0201835,0.687155963 L24.9238532,7.58568807 C25.7655182,8.52043892 25.7280754,9.95050679 24.8386489,10.8399333 C23.9492224,11.7293598 22.5191545,11.7668026 21.5844037,10.9251376 L16.3568807,5.69761468 L8.07119266,13.987156 Z M16.3568807,11.62 L16.3568807,11.62 C15.3993388,11.6194804 14.5357937,12.19589 14.1689982,13.0803943 C13.8022027,13.9648986 14.0044094,14.9832652 14.6813101,15.6605334 C15.3582109,16.3378016 16.3764675,16.5405609 17.2611708,16.1742455 C18.145874,15.8079301 18.7227526,14.944698 18.7227526,13.987156 C18.723093,13.3593471 18.4740237,12.7571164 18.0303367,12.3129476 C17.5866497,11.8687789 16.9846896,11.6190561 16.3568807,11.6187156 L16.3568807,11.62 Z" id="形状"></path>
        </g>
        <rect id="矩形" fill-opacity="0.16" fill="#FFFFFF" x="148" y="15" width="1" height="25"></rect>
        <path d="M162,20.3020123 L167.50733,20.3020123 C169.913853,20.3020123 171.735358,21.0149716 172.949527,22.4621326 C174.054904,23.7578237 174.618979,25.6154186 174.618979,28.0126779 C174.618979,30.3673217 173.990262,32.2244648 172.754221,33.5854489 C171.45308,35.0108456 169.610175,35.7233156 167.225491,35.7233156 L162,35.7233156 L162,20.3020123 L162,20.3020123 Z M163.322564,21.4684823 L163.322564,34.5573489 L167.030227,34.5573489 C169.089838,34.5573489 170.672785,33.9741278 171.756776,32.8076905 C172.797506,31.6847911 173.317875,30.0861508 173.317875,28.0126779 C173.317875,25.8530422 172.862612,24.2548585 171.952087,23.1963717 C170.954606,22.0299343 169.393511,21.4684823 167.312047,21.4684823 L163.322564,21.4684823 L163.322564,21.4684823 Z M181.448845,24.2548631 C183.226645,24.2548631 184.549186,24.8380935 185.438315,26.0471603 C186.218637,27.1056611 186.652502,28.5959083 186.717149,30.5183584 L177.610976,30.5183584 C177.676079,31.8788999 178.044386,32.9587178 178.716811,33.7364949 C179.410634,34.5142721 180.321158,34.9029323 181.492093,34.9029323 C182.510969,34.9029323 183.334998,34.6222068 183.963716,34.1038381 C184.48408,33.6498703 184.874244,33.0022512 185.15605,32.1383065 L186.479044,32.1383065 C186.218634,33.2181244 185.720121,34.1038381 184.982597,34.7949911 C184.072068,35.6153977 182.922986,36.025827 181.492093,36.025827 C179.909141,36.025827 178.651706,35.486144 177.719329,34.4276432 C176.7437,33.3478254 176.266583,31.9006597 176.266583,30.1296889 C176.266583,28.487967 176.721846,27.1274255 177.654224,26.0040696 C178.608453,24.8380842 179.865893,24.2548631 181.448841,24.2548631 L181.448845,24.2548631 Z M181.470243,25.3777718 C180.364408,25.3777718 179.475737,25.7451182 178.803313,26.5224401 C178.131344,27.2784482 177.741185,28.2503295 177.632832,29.459853 L185.35135,29.459853 C185.134645,26.7383133 183.833503,25.3777718 181.470233,25.3777718 L181.470243,25.3777718 Z M187.541181,24.5569132 L188.972074,24.5569132 L192.506279,34.0820784 L196.01909,24.5569132 L197.471378,24.5569132 L193.178703,35.7233296 L191.834309,35.7233296 L187.541181,24.5569132 Z M203.477674,24.2548636 C205.255474,24.2548636 206.578014,24.838094 207.467143,26.0471608 C208.247466,27.1056616 208.681331,28.5959088 208.745978,30.5183589 L199.639804,30.5183589 C199.704907,31.8789004 200.073215,32.9587183 200.745639,33.7364954 C201.439462,34.5142725 202.349986,34.9029328 203.520921,34.9029328 C204.539798,34.9029328 205.363826,34.6222073 205.992544,34.1038386 C206.512909,33.6498708 206.903072,33.0022517 207.184879,32.138307 L208.507873,32.138307 C208.247462,33.2181249 207.748949,34.1038386 207.011425,34.7949915 C206.100897,35.6153981 204.951814,36.0258274 203.520921,36.0258274 C201.937969,36.0258274 200.680534,35.4861445 199.748157,34.4276437 C198.772528,33.3478258 198.295411,31.9006601 198.295411,30.1296893 C198.295411,28.4879675 198.750674,27.127426 199.683052,26.00407 C200.637282,24.8380846 201.894722,24.2548636 203.477669,24.2548636 L203.477674,24.2548636 Z M203.499071,25.3777722 C202.393236,25.3777722 201.504565,25.7451187 200.832142,26.5224406 C200.160172,27.2784487 199.770013,28.2503299 199.66166,29.4598534 L207.380178,29.4598534 C207.163473,26.7383138 205.862332,25.3777722 203.499062,25.3777722 L203.499071,25.3777722 Z M211.239433,20 L212.540574,20 L212.540574,35.7233301 L211.239433,35.7233301 L211.239433,20 Z M220.584623,24.2548729 C222.232222,24.2548729 223.554757,24.838094 224.552239,26.0258437 C225.462768,27.1274306 225.918027,28.5097412 225.918027,30.151011 C225.918027,31.7927329 225.462764,33.1532744 224.552239,34.2548613 C223.554757,35.4212987 222.232217,36.0258321 220.584623,36.0258321 C218.93657,36.0258321 217.61403,35.4212987 216.616548,34.2548613 C215.706019,33.1532744 215.25076,31.7927329 215.25076,30.151011 C215.25076,28.5097412 215.706023,27.1274306 216.638401,26.0258437 C217.61403,24.8380893 218.93657,24.2548729 220.584623,24.2548729 Z M220.584623,25.3777722 C219.305335,25.3777722 218.307853,25.8530567 217.570782,26.846707 C216.898359,27.7106517 216.5733,28.8117819 216.5733,30.151011 C216.5733,31.4684711 216.898358,32.570058 217.570782,33.4340027 C218.307853,34.405884 219.305335,34.9029374 220.584623,34.9029374 C221.863911,34.9029374 222.882792,34.405884 223.619863,33.4340027 C224.270433,32.548741 224.617345,31.4471587 224.617345,30.151011 C224.617345,28.8117819 224.270434,27.7106517 223.619863,26.846707 C222.882792,25.8530567 221.863911,25.3777722 220.584623,25.3777722 Z M233.398459,24.2548729 C234.981411,24.2548729 236.238847,24.838094 237.171223,26.0471608 C237.995247,27.1274306 238.406805,28.4879722 238.406805,30.1727801 C238.406805,31.8140499 237.995248,33.1750434 237.192618,34.2548613 C236.282089,35.4212987 235.046507,36.0258321 233.441707,36.0258321 C231.642054,36.0258321 230.341367,35.1405703 229.517338,33.3909166 L229.517338,40 L228.216651,40 L228.216651,24.556937 L229.452233,24.556937 L229.452233,26.7601108 C230.276257,25.0753075 231.577402,24.2548729 233.398455,24.2548729 L233.398459,24.2548729 Z M233.246857,25.3559976 C232.032669,25.3559976 231.078439,25.8312876 230.406469,26.7818518 C229.777752,27.6240275 229.474093,28.7256144 229.474093,30.0861559 L229.474093,30.3237972 C229.474093,31.6630263 229.799151,32.7646085 230.471575,33.6285532 C231.143545,34.4924979 232.054068,34.9242443 233.203155,34.9242443 C234.482444,34.9242443 235.458073,34.4494165 236.151895,33.5419337 C236.759218,32.6997581 237.062877,31.5764021 237.062877,30.1727745 C237.062877,28.7686949 236.759217,27.6457909 236.173748,26.8031633 C235.479925,25.831282 234.504296,25.3559976 233.246861,25.3559976 L233.246857,25.3559976 Z M245.236669,24.2548636 C247.014928,24.2548636 248.337468,24.838094 249.226139,26.0471608 C250.006915,27.1056616 250.440326,28.5959088 250.505427,30.5183589 L241.399254,30.5183589 C241.464356,31.8789004 241.832664,32.9587183 242.505089,33.7364954 C243.198911,34.5142725 244.109435,34.9029328 245.280371,34.9029328 C246.299247,34.9029328 247.123276,34.6222073 247.751993,34.1038386 C248.272358,33.6498708 248.662522,33.0022517 248.944328,32.138307 L250.266868,32.138307 C250.006913,33.2181249 249.507945,34.1038386 248.770875,34.7949915 C247.860346,35.6153981 246.711264,36.0258274 245.280371,36.0258274 C243.697419,36.0258274 242.439983,35.4861445 241.507607,34.4276437 C240.531978,33.3478258 240.05486,31.9006601 240.05486,30.1296893 C240.05486,28.4879675 240.510124,27.127426 241.442501,26.00407 C242.396277,24.8380846 243.654171,24.2548636 245.236665,24.2548636 L245.236669,24.2548636 Z M245.258522,25.3777722 C244.152687,25.3777722 243.263558,25.7451187 242.591593,26.5224406 C241.919623,27.2784487 241.52901,28.2503299 241.420657,29.4598534 L249.139643,29.4598534 C248.922938,26.7383138 247.621796,25.3777722 245.258527,25.3777722 L245.258522,25.3777722 Z M257.292022,24.2548729 C257.942592,24.2548729 258.484356,24.3192719 258.918221,24.4925142 L258.918221,25.8099743 C258.332751,25.6371854 257.769139,25.572333 257.205068,25.572333 C256.20804,25.572333 255.384016,26.0040784 254.776693,26.9115621 C254.169828,27.7319687 253.888017,28.70385 253.888017,29.8272059 L253.888017,35.7233441 L252.586876,35.7233441 L252.586876,24.5569276 L253.888017,24.5569276 L253.888017,26.6952463 C254.191222,26.0040887 254.603235,25.4426414 255.1236,25.0322074 C255.730923,24.5138415 256.467993,24.2548729 257.292017,24.2548729 L257.292022,24.2548729 Z M264.20836,24.2548683 C266.853436,24.2548683 268.349888,25.3995413 268.674946,27.6888826 L267.395658,27.6888826 C267.244055,26.9115575 266.940395,26.3496535 266.463281,25.9827623 C265.942917,25.5723321 265.183993,25.3777722 264.186965,25.3777722 C263.362941,25.3777722 262.690517,25.5287926 262.170148,25.8748257 C261.649783,26.2204036 261.389825,26.6521509 261.389825,27.2135982 C261.389825,27.7750502 261.714883,28.2290175 262.387307,28.5745963 C262.820718,28.7904691 263.601495,29.0494241 264.750577,29.3519215 C266.116365,29.6974994 267.091994,30.0430791 267.656065,30.3886533 C268.54474,30.9287882 269,31.6847963 269,32.6349085 C269,34.8811637 267.482607,36.0258368 264.446913,36.0258368 C261.563279,36.0258368 260.00218,34.7514628 259.741787,32.2031668 L261.021075,32.2031668 C261.15128,33.1750481 261.498192,33.8875181 262.061805,34.3197164 C262.582169,34.7083781 263.362946,34.9029374 264.40368,34.9029374 C266.571644,34.9029374 267.656079,34.1686984 267.656079,32.6997636 C267.656079,32.0303751 267.287316,31.5120092 266.550244,31.1446614 C266.159629,30.9501038 265.336057,30.6911469 264.056768,30.3673362 C262.755627,30.0217583 261.845099,29.6974957 261.324734,29.3736859 C260.457458,28.85532 260.045446,28.1423934 260.045446,27.2353672 C260.045446,26.3283364 260.435606,25.6154145 261.259634,25.0539625 C262.04041,24.5138276 263.037434,24.2548683 264.208374,24.2548683 L264.20836,24.2548683 Z" id="_149515400" fill="url(#linearGradient-1)"></path>
    </g>
</svg>