<svg xmlns="http://www.w3.org/2000/svg" xmlns:xlink="http://www.w3.org/1999/xlink" width="226" height="28" viewBox="0 0 226 28">
  <defs>
    <linearGradient id="api-logo-b" x1="3.945%" x2="94.882%" y1="3.907%" y2="84.059%">
      <stop offset="0%" stop-color="#6AC02C"/>
      <stop offset="49.81%" stop-color="#01AAFF"/>
      <stop offset="100%" stop-color="#C14FD4"/>
    </linearGradient>
    <path id="api-logo-a" d="M136.314,10.148 L140.886,10.148 C142.884,10.148 144.396,10.742 145.404,11.948 C146.322,13.028 146.79,14.576 146.79,16.574 C146.79,18.536 146.268,20.084 145.242,21.218 C144.162,22.406 142.632,23 140.652,23 L136.314,23 L136.314,10.148 Z M137.412,11.12 L137.412,22.028 L140.49,22.028 C142.2,22.028 143.514,21.542 144.414,20.57 C145.278,19.634 145.71,18.302 145.71,16.574 C145.71,14.774 145.332,13.442 144.576,12.56 C143.748,11.588 142.452,11.12 140.724,11.12 L137.412,11.12 Z M152.46,13.442 C153.936,13.442 155.034,13.928 155.772,14.936 C156.42,15.818 156.78,17.06 156.834,18.662 L149.274,18.662 C149.328,19.796 149.634,20.696 150.192,21.344 C150.768,21.992 151.524,22.316 152.496,22.316 C153.342,22.316 154.026,22.082 154.548,21.65 C154.98,21.272 155.304,20.732 155.538,20.012 L156.636,20.012 C156.42,20.912 156.006,21.65 155.394,22.226 C154.638,22.91 153.684,23.252 152.496,23.252 C151.182,23.252 150.138,22.802 149.364,21.92 C148.554,21.02 148.158,19.814 148.158,18.338 C148.158,16.97 148.536,15.836 149.31,14.9 C150.102,13.928 151.146,13.442 152.46,13.442 Z M152.478,14.378 C151.56,14.378 150.822,14.684 150.264,15.332 C149.706,15.962 149.382,16.772 149.292,17.78 L155.7,17.78 C155.52,15.512 154.44,14.378 152.478,14.378 Z M157.518,13.694 L158.706,13.694 L161.64,21.632 L164.556,13.694 L165.762,13.694 L162.198,23 L161.082,23 L157.518,13.694 Z M170.748,13.442 C172.224,13.442 173.322,13.928 174.06,14.936 C174.708,15.818 175.068,17.06 175.122,18.662 L167.562,18.662 C167.616,19.796 167.922,20.696 168.48,21.344 C169.056,21.992 169.812,22.316 170.784,22.316 C171.63,22.316 172.314,22.082 172.836,21.65 C173.268,21.272 173.592,20.732 173.826,20.012 L174.924,20.012 C174.708,20.912 174.294,21.65 173.682,22.226 C172.926,22.91 171.972,23.252 170.784,23.252 C169.47,23.252 168.426,22.802 167.652,21.92 C166.842,21.02 166.446,19.814 166.446,18.338 C166.446,16.97 166.824,15.836 167.598,14.9 C168.39,13.928 169.434,13.442 170.748,13.442 Z M170.766,14.378 C169.848,14.378 169.11,14.684 168.552,15.332 C167.994,15.962 167.67,16.772 167.58,17.78 L173.988,17.78 C173.808,15.512 172.728,14.378 170.766,14.378 Z M177.192,9.896 L178.272,9.896 L178.272,23 L177.192,23 L177.192,9.896 Z M184.95,13.442 C186.318,13.442 187.416,13.928 188.244,14.918 C189,15.836 189.378,16.988 189.378,18.356 C189.378,19.724 189,20.858 188.244,21.776 C187.416,22.748 186.318,23.252 184.95,23.252 C183.582,23.252 182.484,22.748 181.656,21.776 C180.9,20.858 180.522,19.724 180.522,18.356 C180.522,16.988 180.9,15.836 181.674,14.918 C182.484,13.928 183.582,13.442 184.95,13.442 Z M184.95,14.378 C183.888,14.378 183.06,14.774 182.448,15.602 C181.89,16.322 181.62,17.24 181.62,18.356 C181.62,19.454 181.89,20.372 182.448,21.092 C183.06,21.902 183.888,22.316 184.95,22.316 C186.012,22.316 186.858,21.902 187.47,21.092 C188.01,20.354 188.298,19.436 188.298,18.356 C188.298,17.24 188.01,16.322 187.47,15.602 C186.858,14.774 186.012,14.378 184.95,14.378 Z M195.588,13.442 C196.902,13.442 197.946,13.928 198.72,14.936 C199.404,15.836 199.746,16.97 199.746,18.374 C199.746,19.742 199.404,20.876 198.738,21.776 C197.982,22.748 196.956,23.252 195.624,23.252 C194.13,23.252 193.05,22.514 192.366,21.056 L192.366,26.564 L191.286,26.564 L191.286,13.694 L192.312,13.694 L192.312,15.53 C192.996,14.126 194.076,13.442 195.588,13.442 Z M195.462,14.36 C194.454,14.36 193.662,14.756 193.104,15.548 C192.582,16.25 192.33,17.168 192.33,18.302 L192.33,18.5 C192.33,19.616 192.6,20.534 193.158,21.254 C193.716,21.974 194.472,22.334 195.426,22.334 C196.488,22.334 197.298,21.938 197.874,21.182 C198.378,20.48 198.63,19.544 198.63,18.374 C198.63,17.204 198.378,16.268 197.892,15.566 C197.316,14.756 196.506,14.36 195.462,14.36 Z M205.416,13.442 C206.892,13.442 207.99,13.928 208.728,14.936 C209.376,15.818 209.736,17.06 209.79,18.662 L202.23,18.662 C202.284,19.796 202.59,20.696 203.148,21.344 C203.724,21.992 204.48,22.316 205.452,22.316 C206.298,22.316 206.982,22.082 207.504,21.65 C207.936,21.272 208.26,20.732 208.494,20.012 L209.592,20.012 C209.376,20.912 208.962,21.65 208.35,22.226 C207.594,22.91 206.64,23.252 205.452,23.252 C204.138,23.252 203.094,22.802 202.32,21.92 C201.51,21.02 201.114,19.814 201.114,18.338 C201.114,16.97 201.492,15.836 202.266,14.9 C203.058,13.928 204.102,13.442 205.416,13.442 Z M205.434,14.378 C204.516,14.378 203.778,14.684 203.22,15.332 C202.662,15.962 202.338,16.772 202.248,17.78 L208.656,17.78 C208.476,15.512 207.396,14.378 205.434,14.378 Z M215.424,13.442 C215.964,13.442 216.414,13.496 216.774,13.64 L216.774,14.738 C216.288,14.594 215.82,14.54 215.352,14.54 C214.524,14.54 213.84,14.9 213.336,15.656 C212.832,16.34 212.598,17.15 212.598,18.086 L212.598,23 L211.518,23 L211.518,13.694 L212.598,13.694 L212.598,15.476 C212.85,14.9 213.192,14.432 213.624,14.09 C214.128,13.658 214.74,13.442 215.424,13.442 Z M221.166,13.442 C223.362,13.442 224.604,14.396 224.874,16.304 L223.812,16.304 C223.686,15.656 223.434,15.188 223.038,14.882 C222.606,14.54 221.976,14.378 221.148,14.378 C220.464,14.378 219.906,14.504 219.474,14.792 C219.042,15.08 218.826,15.44 218.826,15.908 C218.826,16.376 219.096,16.754 219.654,17.042 C220.014,17.222 220.662,17.438 221.616,17.69 C222.75,17.978 223.56,18.266 224.028,18.554 C224.766,19.004 225.144,19.634 225.144,20.426 C225.144,22.298 223.884,23.252 221.364,23.252 C218.97,23.252 217.674,22.19 217.458,20.066 L218.52,20.066 C218.628,20.876 218.916,21.47 219.384,21.83 C219.816,22.154 220.464,22.316 221.328,22.316 C223.128,22.316 224.028,21.704 224.028,20.48 C224.028,19.922 223.722,19.49 223.11,19.184 C222.786,19.022 222.102,18.806 221.04,18.536 C219.96,18.248 219.204,17.978 218.772,17.708 C218.052,17.276 217.71,16.682 217.71,15.926 C217.71,15.17 218.034,14.576 218.718,14.108 C219.366,13.658 220.194,13.442 221.166,13.442 Z"/>
  </defs>
  <g fill="none" fill-rule="evenodd">
    <path fill="#0093DD" fill-rule="nonzero" d="M7.9758806,13.718504 L16.1605075,21.844104 L21.3267761,16.716104 C22.2375224,15.810504 23.7188955,15.810504 24.6312537,16.716104 C25.5436119,17.621704 25.5436119,19.090504 24.6312537,19.996104 L17.8127463,26.764104 C16.9044179,27.664904 15.4085373,27.656904 14.5082686,26.764104 L4.67301492,17.000104 L4.67301492,22.804904 C4.67301492,24.079304 3.62041791,25.124904 2.33570149,25.124904 C1.04614925,25.124904 -1.06759046e-12,24.084904 -1.06759046e-12,22.804904 L-1.06759046e-12,4.63210405 C-1.06759046e-12,3.35210405 1.04614925,2.31210405 2.33731343,2.31210405 C3.62686567,2.31210405 4.67301492,3.35210405 4.67301492,4.63210405 L4.67301492,10.436904 L14.5082686,0.672904046 C15.4085373,-0.219895954 16.9044179,-0.228695954 17.8127463,0.672904046 L24.6312537,7.44090405 C25.5436119,8.34490405 25.5436119,9.81450405 24.6312537,10.720904 C23.7188955,11.624904 22.2375224,11.626504 21.3267761,10.720904 L16.1605075,5.59290405 L7.9758806,13.718504 Z M16.1645373,11.396904 C17.4557015,11.396904 18.5018507,12.436904 18.5018507,13.718504 C18.5018507,15.000104 17.4557015,16.040104 16.1645373,16.040104 C14.8725672,16.040104 13.824806,15.000104 13.824806,13.718504 C13.824806,12.436904 14.8725672,11.396904 16.1637313,11.396904 L16.1645373,11.396904 Z"/>
    <path fill="#68B92E" fill-rule="nonzero" d="M35.4483284,4.0248 C34.6568657,4.0248 34,4.676 34,5.4616 L34,22.796 C34,23.584 34.6528358,24.2336 35.4426866,24.2336 C36.2325373,24.2336 36.8853732,23.5856 36.8853732,22.8016 L36.8853732,5.4648 C36.8853732,4.6752 36.2244776,4.0248 35.4346269,4.0248 L35.4483284,4.0248 Z M46.6996717,4.4424 C46.1419403,3.8872 45.2126567,3.8872 44.6525075,4.4424 L38.1757314,10.8728 C37.6945672,11.3504 37.7590448,12.092 37.9726269,12.4584 L44.4203881,23.5144 C44.8088657,24.1832 45.718,24.4384 46.3982388,24.0424 C47.0784776,23.644 47.3251045,22.7584 46.9301791,22.0808 L41.0820597,12.052 L46.7012836,6.476 C47.2622388,5.9176 47.2622388,5 46.7012836,4.4424 L46.6996717,4.4424 Z M50.6537612,9.864 C49.8622985,9.864 49.2054329,10.512 49.2054329,11.296 L49.2054329,18.88 C49.2054329,21.832 51.6201194,24.232 54.5957612,24.232 L59.1357911,24.232 C59.9240299,24.232 60.5833135,23.576 60.5833135,22.792 L60.5833135,11.2968 C60.5833135,10.508 59.9304776,9.8616 59.1357911,9.8616 C58.3443284,9.8616 57.6874627,10.512 57.6874627,11.2968 L57.6874627,21.356 L54.5925373,21.356 C53.2143284,21.356 52.0940299,20.2472 52.0940299,18.88 L52.0940299,11.296 C52.0940299,10.504 51.441194,9.856 50.6432836,9.856 L50.6537612,9.864 Z M75.7242687,5.456 C75.7242687,4.664 75.067403,4.016 74.2759403,4.016 L68.7872836,4.016 C65.8132537,4.016 63.403403,6.408 63.403403,9.36 L63.403403,18.872 C63.403403,21.824 65.8213135,24.224 68.7953433,24.224 L74.2920597,24.224 C75.0899702,24.224 75.742806,23.568 75.742806,22.784 C75.742806,22 75.0899702,21.344 74.2920597,21.344 L68.7945373,21.344 C67.4163284,21.344 66.3000597,20.232 66.3000597,18.864 L66.3000597,9.3688 C66.3000597,8.0008 67.4171343,6.8928 68.7945373,6.8928 L74.283194,6.8928 C75.0746567,6.8928 75.7299105,6.2424 75.7299105,5.4552 L75.7242687,5.456 Z M92.6335224,4.016 C91.8396418,4.016 91.186,4.664 91.186,5.448 C91.186,6.232 91.8404478,6.88 92.6343284,6.88 C93.4241791,6.88 94.0770149,6.232 94.0770149,5.44 C94.0770149,4.648 93.4241791,4 92.6262687,4 L92.6335224,4.016 Z M92.6335224,9.856 C91.8396418,9.856 91.186,10.504 91.186,11.288 L91.186,22.784 C91.186,23.568 91.8404478,24.216 92.6343284,24.216 C93.4241791,24.216 94.0770149,23.568 94.0770149,22.776 L94.0770149,11.3048 C94.0770149,10.5176 93.4241791,9.868 92.6262687,9.868 L92.6335224,9.856 Z M106.336627,24.224 C107.12809,24.224 107.784956,23.568 107.784956,22.784 L107.784956,15.208 C107.784956,12.248 105.371075,9.856 102.394627,9.856 L97.8489552,9.856 C97.0591045,9.856 96.398209,10.512 96.398209,11.288 L96.398209,22.784 C96.398209,23.568 97.0510448,24.216 97.8408955,24.216 C98.6307463,24.216 99.2835821,23.56 99.2835821,22.776 L99.2835821,12.7368 L102.370448,12.7368 C103.745433,12.7368 104.862508,13.8456 104.862508,15.2128 L104.862508,22.7952 C104.862508,23.5816 105.515344,24.232 106.308418,24.232 L106.336627,24.224 Z M77.8077015,15.2088 C77.8077015,12.2648 80.2062687,9.8592 83.167403,9.8592 L83.5276717,9.8592 C86.4775224,9.8592 88.8615821,12.2712 88.8615821,15.2064 L88.8615821,18.8784 C88.8615821,21.8144 86.4775224,24.2224 83.5276717,24.2264 L83.167403,24.2264 C80.2054627,24.2288 77.8077015,21.8208 77.8077015,18.8768 L77.8077015,15.2048 L77.8077015,15.2088 Z M85.9641194,15.2088 C85.9641194,13.8432 84.8518806,12.7328 83.4760896,12.7328 L83.1923881,12.7328 C81.817403,12.7328 80.7035523,13.8448 80.7035523,15.2104 L80.7035523,18.88 C80.7035523,20.24 81.817403,21.352 83.1923881,21.352 L83.4760896,21.352 C84.8510746,21.352 85.9649254,20.24 85.9649254,18.872 L85.9649254,15.2 L85.9641194,15.2088 Z"/>
    <rect width="1" height="27" x="122" fill="#FFF" fill-opacity=".16"/>
    <use fill="#000" xlink:href="#api-logo-a"/>
    <use fill="url(#api-logo-b)" xlink:href="#api-logo-a"/>
  </g>
</svg>
